<svg width="252" height="155" viewBox="0 0 252 155" fill="none" xmlns="http://www.w3.org/2000/svg">
<path d="M115.414 89.2987L115.779 93.5155C118.258 90.2616 121.678 88.6346 126.039 88.6346C129.78 88.6346 132.569 89.7525 134.406 91.9881C136.266 94.2238 137.229 97.5884 137.295 102.082V125.224H126.072V102.547C126.072 100.732 125.707 99.4035 124.977 98.5623C124.246 97.6991 122.918 97.2674 120.992 97.2674C118.801 97.2674 117.174 98.1307 116.111 99.8573V125.224H104.922V89.2987H115.414ZM183.613 119.248C181.82 121.24 179.197 122.845 175.744 124.062C172.291 125.28 168.506 125.889 164.389 125.889C158.058 125.889 153 123.952 149.215 120.078C145.43 116.204 143.404 110.814 143.139 103.908L143.105 99.7245C143.105 94.9653 143.947 90.815 145.629 87.2733C147.311 83.7095 149.713 80.9758 152.834 79.0721C155.977 77.1463 159.607 76.1834 163.725 76.1834C169.745 76.1834 174.416 77.5669 177.736 80.3338C181.079 83.0786 183.027 87.1847 183.58 92.6522H172.357C171.959 89.9517 171.096 88.0259 169.768 86.8748C168.439 85.7238 166.558 85.1483 164.123 85.1483C161.201 85.1483 158.943 86.3879 157.35 88.867C155.756 91.3462 154.948 94.8879 154.926 99.492V102.414C154.926 107.239 155.745 110.87 157.383 113.305C159.043 115.717 161.644 116.924 165.186 116.924C168.218 116.924 170.476 116.249 171.959 114.898V107.394H163.857V99.3924H183.613V119.248ZM231.326 102.049C231.326 106.764 230.452 110.936 228.703 114.566C226.954 118.196 224.464 120.997 221.232 122.967C218.023 124.915 214.359 125.889 210.242 125.889C206.125 125.889 202.473 124.948 199.285 123.066C196.098 121.163 193.607 118.451 191.814 114.931C190.044 111.412 189.114 107.372 189.025 102.812V100.09C189.025 95.3527 189.889 91.1802 191.615 87.5721C193.364 83.9419 195.854 81.1418 199.086 79.1717C202.34 77.2017 206.036 76.2166 210.176 76.2166C214.271 76.2166 217.923 77.1906 221.133 79.1385C224.342 81.0864 226.833 83.8644 228.604 87.4725C230.396 91.0584 231.304 95.1756 231.326 99.8241V102.049ZM219.473 100.023C219.473 95.2199 218.665 91.5786 217.049 89.0995C215.455 86.5982 213.164 85.3475 210.176 85.3475C204.332 85.3475 201.244 89.7303 200.912 98.4959L200.879 102.049C200.879 106.786 201.665 110.427 203.236 112.973C204.808 115.518 207.143 116.791 210.242 116.791C213.186 116.791 215.455 115.54 217.049 113.039C218.643 110.538 219.451 106.941 219.473 102.248V100.023Z" fill="black"/>
<line x1="54.7941" y1="129.219" x2="121.434" y2="51.9663" stroke="black" stroke-width="5"/>
<line x1="24.335" y1="102.219" x2="90.9753" y2="24.9662" stroke="black" stroke-width="5"/>
<ellipse cx="105.879" cy="38.7287" rx="23.0273" ry="22.8403" transform="rotate(-4.21804 105.879 38.7287)" fill="black"/>
<ellipse cx="39.3659" cy="115.865" rx="22.9789" ry="22.8403" transform="rotate(39.8817 39.3659 115.865)" fill="black"/>
<rect x="89.3269" y="24.1252" width="42.3863" height="102.027" transform="rotate(41.0139 89.3269 24.1252)" fill="black"/>
</svg>
